<?xml version="1.0" standalone="no"?>
<!DOCTYPE svg PUBLIC "-//W3C//DTD SVG 20010904//EN"
 "http://www.w3.org/TR/2001/REC-SVG-20010904/DTD/svg10.dtd">
<svg version="1.0" xmlns="http://www.w3.org/2000/svg"
 width="512.000000pt" height="512.000000pt" viewBox="0 0 512.000000 512.000000"
 preserveAspectRatio="xMidYMid meet">
<metadata>
Created by potrace 1.11, written by Peter Selinger 2001-2013
</metadata>
<g transform="translate(0.000000,512.000000) scale(0.100000,-0.100000)"
fill="#000000" stroke="none">
<path d="M480 4269 c-144 -20 -265 -94 -372 -227 -32 -39 -78 -141 -92 -203
-14 -58 -15 -192 -2 -248 33 -146 126 -276 253 -358 64 -40 93 -44 131 -16 21
15 34 18 57 11 25 -7 158 -17 243 -18 12 0 22 -6 22 -13 0 -8 9 -22 20 -32 19
-17 41 -19 253 -19 128 0 254 3 281 7 120 16 241 107 298 225 30 61 33 76 33
162 0 83 -3 102 -27 153 -51 109 -124 179 -229 218 -53 21 -151 27 -217 15
-42 -8 -42 -8 -60 31 -48 106 -143 201 -257 257 -106 53 -218 71 -335 55z"/>
<path d="M3527 3814 c-82 -55 -82 -165 0 -215 62 -39 141 -19 178 43 23 39 22
90 -4 131 -38 63 -116 81 -174 41z"/>
<path d="M2931 3692 c-64 -31 -93 -110 -63 -171 43 -90 172 -98 222 -15 64
110 -47 241 -159 186z"/>
<path d="M4120 3643 c-89 -26 -129 -113 -88 -191 16 -32 70 -62 110 -64 92 -3
156 99 116 187 -20 43 -95 80 -138 68z"/>
<path d="M3437 3424 c-1 -1 -27 -4 -57 -7 -76 -8 -100 -14 -181 -43 -134 -48
-218 -103 -328 -211 l-64 -63 -31 19 c-185 111 -324 152 -533 156 -79 2 -160
-1 -180 -5 -21 -5 -54 -12 -73 -15 -92 -15 -280 -94 -310 -130 -7 -9 -13 -31
-13 -49 0 -26 -7 -38 -36 -57 -19 -13 -68 -56 -107 -95 -60 -60 -77 -71 -98
-67 -14 3 -36 -2 -49 -10 -47 -31 -143 -224 -176 -353 l-17 -69 -50 -13 c-366
-98 -610 -411 -605 -777 1 -44 3 -91 4 -105 43 -302 262 -560 551 -649 38 -12
92 -24 120 -28 28 -4 600 -7 1271 -7 1236 1 1260 1 1360 36 318 110 520 400
510 728 -3 98 -20 192 -46 250 -24 53 -53 107 -81 148 l-28 43 39 65 c22 36
47 87 57 115 10 27 23 50 28 50 6 1 124 2 261 4 274 2 306 7 390 65 148 102
194 295 108 455 -23 43 -91 110 -138 137 -62 34 -163 49 -232 34 -29 -7 -32
-4 -61 47 -55 97 -145 175 -252 217 -66 26 -92 30 -175 30 -75 0 -78 0 -143
-19 -42 -12 -44 -11 -110 31 -104 68 -230 117 -347 135 -32 4 -174 11 -178 7z"/>
</g>
</svg>
